:SAMPLES-PER-SECOND 30
:FULLY-SPECIFIED
:DEGREES
38
root  -4.57611 41.0369 -0.551567 178.951 -78.3608 -175.282
RightUpLeg  0.964265 -0.34985 0.337861
RightLeg  -3.99596 -12.0352 2.25269
RightFoot  0.921062 -0.214424 2.01849
RightToes  -3.10678e-008 1.75238e-005 3.56266e-009
Spine  8.27542 -6.58303 -15.6746
Spine1  -9.35491 -9.30826 22.7151
HEad  -17.878 -22.7112 8.95203
LeftShoulder1  1.93563 -3.31058 -22.077
LeftArm  -14.663 -15.7241 -43.2788
LeftForeArm  133.983 -77.572 -128.284
LeftHand  -0.655067 -3.8108 8.5186
RightShoulder  1.79034 2.59517 23.2132
RightArm  -5.57249 -25.8002 40.785
RightForeArm  86.6446 79.8005 88.6777
RightHand  -0.182486 8.1754 -1.93676
LeftUpLeg  4.2714 2.1636 3.34565
LeftLeg  -5.93776 26.8973 -3.25798
LeftFoot  0.413822 0.451233 -4.4073
LeftToes  4.7643e-008 1.47522e-008 1.32869e-009
39
root  -4.58177 41.0541 -0.591069 -179.839 -78.6062 -176.322
RightUpLeg  0.824138 -0.411016 0.181154
RightLeg  -4.0706 -12.2785 2.25927
RightFoot  0.953835 -0.213573 2.04395
RightToes  -3.10678e-008 1.75238e-005 3.56266e-009
Spine  8.0023 -6.3244 -15.1025
Spine1  -9.32167 -8.90614 21.774
HEad  -17.7585 -17.9665 7.93506
LeftShoulder1  1.94963 -3.36975 -22.0331
LeftArm  -15.2838 -15.3476 -43.3418
LeftForeArm  134.541 -77.4232 -129.085
LeftHand  -0.678706 -4.15523 8.53566
RightShoulder  1.845 2.77998 23.2158
RightArm  -5.46045 -26.7833 40.3422
RightForeArm  90.0658 79.761 92.8267
RightHand  -0.220755 7.90288 -2.29577
LeftUpLeg  4.028 2.09815 3.23217
LeftLeg  -5.87379 26.5427 -3.24546
LeftFoot  0.730717 0.475439 -4.53851
LeftToes  4.7643e-008 1.47522e-008 1.32869e-009
40
root  -4.59801 41.0624 -0.645214 -179.496 -79.218 -176.771
RightUpLeg  1.21392 -0.400541 0.201312
RightLeg  -4.47377 -13.0089 2.36077
RightFoot  0.994318 -0.195622 1.87196
RightToes  -3.10678e-008 1.75238e-005 3.56266e-009
Spine  7.67961 -6.12877 -14.3059
Spine1  -8.87495 -8.61839 20.5337
HEad  -17.5785 -10.3308 6.88183
LeftShoulder1  2.00377 -3.53777 -22.1322
LeftArm  -16.3087 -15.0164 -43.4425
LeftForeArm  134.511 -77.5103 -128.695
LeftHand  -0.621612 -4.51434 7.57771
RightShoulder  1.85178 2.77456 23.3566
RightArm  -5.68015 -26.4531 40.3978
RightForeArm  86.3004 79.7795 88.8942
RightHand  -0.200511 7.85581 -2.12546
LeftUpLeg  3.82428 2.2604 3.35857
LeftLeg  -5.21934 25.564 -3.02846
LeftFoot  0.824362 0.480031 -4.54691
LeftToes  4.7643e-008 1.47522e-008 1.32869e-009
41
root  -4.6093 41.0681 -0.701 -178.768 -80.1413 -177.652
RightUpLeg  1.52102 -0.568176 0.0907146
RightLeg  -4.52171 -13.657 2.43571
RightFoot  0.852865 -0.172613 1.66949
RightToes  -3.10678e-008 1.75238e-005 3.56266e-009
Spine  7.37723 -6.03413 -13.4968
Spine1  -8.40126 -8.42 19.2206
HEad  -16.9496 -0.917998 5.06284
LeftShoulder1  1.93104 -3.30851 -22.0156
LeftArm  -16.9625 -15.039 -43.4181
LeftForeArm  133.898 -77.7038 -127.666
LeftHand  -0.632356 -3.9518 8.12848
RightShoulder  1.8932 2.9136 23.362
RightArm  -5.47383 -26.8434 40.2115
RightForeArm  87.6584 79.7774 90.3283
RightHand  -0.168229 7.87348 -1.84168
LeftUpLeg  3.72115 2.2774 3.33654
LeftLeg  -4.87713 24.7312 -2.91133
LeftFoot  0.850791 0.472541 -4.46471
LeftToes  4.7643e-008 1.47522e-008 1.32869e-009
42
root  -4.60095 41.0584 -0.762292 -177.878 -80.9404 -178.657
RightUpLeg  1.61553 -0.650225 0.0569879
RightLeg  -4.36292 -14.3452 2.38708
RightFoot  0.66114 -0.147143 1.44196
RightToes  -3.10678e-008 1.75238e-005 3.56266e-009
Spine  6.91627 -5.70477 -12.8851
Spine1  -7.83036 -8.02291 18.2972
HEad  -16.6236 7.98098 2.6744
LeftShoulder1  1.8965 -3.14973 -22.1799
LeftArm  -17.4896 -15.3214 -43.0456
LeftForeArm  132.601 -77.811 -126.818
LeftHand  -0.57681 -4.32946 7.17284
RightShoulder  1.86108 2.85959 23.0938
RightArm  -5.39215 -26.819 40.3204
RightForeArm  86.3843 79.7778 89.0154
RightHand  -0.145787 7.90622 -1.64231
LeftUpLeg  3.69482 2.23209 3.27417
LeftLeg  -4.85311 24.222 -2.91745
LeftFoot  0.881426 0.468054 -4.43527
LeftToes  4.7643e-008 1.47522e-008 1.32869e-009
43
root  -4.59215 41.049 -0.821531 -177.074 -81.7185 -179.694
RightUpLeg  1.82229 -0.723618 0.0506394
RightLeg  -4.21138 -15.1114 2.34991
RightFoot  0.442895 -0.129842 1.28687
RightToes  -3.10678e-008 1.75238e-005 3.56266e-009
Spine  6.13155 -5.29953 -12.5527
Spine1  -6.54025 -7.6666 17.5524
HEad  -15.8713 16.5332 0.367576
LeftShoulder1  1.90417 -3.15932 -22.2589
LeftArm  -17.7215 -15.6796 -42.6393
LeftForeArm  132.219 -77.794 -126.795
LeftHand  -0.606033 -3.97192 7.78671
RightShoulder  1.85087 2.79392 23.2455
RightArm  -5.17881 -26.6284 39.96
RightForeArm  86.7552 79.751 90.0019
RightHand  -0.247995 7.75685 -2.55874
LeftUpLeg  3.80958 2.10526 3.18275
LeftLeg  -4.84564 23.7018 -2.79231
LeftFoot  0.946949 0.468886 -4.40884
LeftToes  4.7643e-008 1.47522e-008 1.32869e-009
44
root  -4.60562 41.0489 -0.89952 -176.363 -82.9131 179.324
RightUpLeg  2.19743 -0.878061 0.0425276
RightLeg  -4.0918 -16.0574 2.45296
RightFoot  0.211766 -0.11576 1.158
RightToes  -3.10678e-008 1.75238e-005 3.56266e-009
Spine  5.94086 -4.99187 -12.4411
Spine1  -6.19097 -7.35086 17.2147
HEad  -14.7841 23.6349 -1.18884
LeftShoulder1  1.81352 -2.89034 -22.0268
LeftArm  -17.3432 -16.0313 -42.8622
LeftForeArm  132.621 -77.7571 -127.076
LeftHand  -0.576223 -4.49764 7.04688
RightShoulder  1.85785 2.831 23.1797
RightArm  -5.40192 -27.0286 39.917
RightForeArm  86.8974 79.7309 90.5722
RightHand  -0.347736 7.51677 -3.49183
LeftUpLeg  3.91863 2.07701 3.22717
LeftLeg  -4.74629 22.6493 -2.61284
LeftFoot  1.07798 0.489345 -4.55755
LeftToes  4.7643e-008 1.47522e-008 1.32869e-009
45
root  -4.60914 41.0564 -0.973976 -174.317 -84.0382 177.079
RightUpLeg  2.4873 -1.12431 -0.0969005
RightLeg  -4.0179 -16.8256 2.56129
RightFoot  0.0920014 -0.0989082 0.994007
RightToes  -3.10678e-008 1.75238e-005 3.56266e-009
Spine  5.67198 -4.80173 -12.7741
Spine1  -5.69281 -7.22238 17.2972
HEad  -13.3518 29.4447 -1.186
LeftShoulder1  1.76625 -2.75628 -21.8661
LeftArm  -17.3001 -15.9096 -42.5566
LeftForeArm  133.455 -77.616 -127.949
LeftHand  -0.593038 -4.46963 7.26643
RightShoulder  1.83971 2.76295 23.2126
RightArm  -5.50028 -26.9636 40.0075
RightForeArm  86.5372 79.764 89.4934
RightHand  -0.197801 8.04946 -2.07537
LeftUpLeg  4.10019 1.97504 3.1534
LeftLeg  -5.05642 21.7521 -2.6457
LeftFoot  1.43065 0.500067 -4.54499
LeftToes  4.7643e-008 1.47522e-008 1.32869e-009
46
root  -4.6172 41.0596 -1.04113 -173.022 -85.2845 175.528
RightUpLeg  2.93819 -1.2357 -0.0468316
RightLeg  -4.12764 -17.9373 2.74442
RightFoot  -0.0255599 -0.0943549 0.959091
RightToes  -3.10678e-008 1.75238e-005 3.56266e-009
Spine  5.85934 -4.57459 -13.1249
Spine1  -5.93689 -7.04481 17.8111
HEad  -11.2453 32.8664 -1.82299
LeftShoulder1  1.84586 -2.96516 -22.2051
LeftArm  -17.1504 -15.721 -42.5078
LeftForeArm  133.506 -77.5426 -128.291
LeftHand  -0.617348 -4.43336 7.5762
RightShoulder  1.82404 2.7949 22.7895
RightArm  -5.64761 -27.3806 40.2811
RightForeArm  87.182 79.7608 90.2159
RightHand  -0.158066 7.84401 -1.75642
LeftUpLeg  4.08949 2.00353 3.26664
LeftLeg  -4.78034 20.5535 -2.41184
LeftFoot  1.5147 0.517594 -4.67444
LeftToes  4.7643e-008 1.47522e-008 1.32869e-009
47
root  -4.61274 41.0562 -1.09899 -169.74 -86.2479 172.061
RightUpLeg  3.29993 -1.25216 -0.0285028
RightLeg  -4.31802 -18.9147 2.79465
RightFoot  -0.154182 -0.0875535 0.874742
RightToes  -3.10678e-008 1.75238e-005 3.56266e-009
Spine  5.59655 -4.58465 -12.9441
Spine1  -5.37666 -7.03873 17.2099
HEad  -10.7112 36.0135 -1.73962
LeftShoulder1  1.74336 -2.69433 -21.7699
LeftArm  -17.1383 -15.807 -42.9135
LeftForeArm  133.143 -77.5971 -127.951
LeftHand  -0.63822 -4.78196 7.5745
RightShoulder  1.79433 2.65565 22.9752
RightArm  -5.23303 -27.0526 40.3494
RightForeArm  87.252 79.7329 90.8745
RightHand  -0.235273 7.73383 -2.44591
LeftUpLeg  4.09769 1.98376 3.26273
LeftLeg  -4.69229 19.6094 -2.31604
LeftFoot  1.62894 0.520883 -4.68722
LeftToes  4.7643e-008 1.47522e-008 1.32869e-009
48
root  -4.59915 41.0498 -1.14411 -163.92 -86.7897 166.171
RightUpLeg  3.2591 -1.28006 -0.097242
RightLeg  -4.02444 -19.5411 2.59717
RightFoot  -0.463858 -0.081524 0.820516
RightToes  -3.10678e-008 1.75238e-005 3.56266e-009
Spine  5.47546 -4.44524 -13.1715
Spine1  -5.24148 -6.90865 17.2624
HEad  -9.88434 37.1641 -1.90478
LeftShoulder1  1.91762 -3.21549 -22.2214
LeftArm  -17.8928 -15.4449 -42.12
LeftForeArm  133.89 -77.5009 -128.578
LeftHand  -0.617231 -4.77276 7.34272
RightShoulder  1.87884 2.96548 22.8762
RightArm  -5.32504 -27.1172 40.4738
RightForeArm  86.9879 79.7378 90.5195
RightHand  -0.259199 7.69612 -2.66244
LeftUpLeg  4.17727 1.88026 3.11004
LeftLeg  -4.93363 19.1451 -2.4039
LeftFoot  1.78719 0.517048 -4.63561
LeftToes  4.7643e-008 1.47522e-008 1.32869e-009
49
root  -4.59738 41.0333 -1.18302 -155.742 -87.5359 157.965
RightUpLeg  3.27809 -1.39352 -0.162891
RightLeg  -3.85359 -20.3138 2.59773
RightFoot  -0.820442 -0.079616 0.837238
RightToes  -3.10678e-008 1.75238e-005 3.56266e-009
Spine  5.37996 -4.45961 -12.9577
Spine1  -5.16935 -6.84143 16.7152
HEad  -9.2696 37.3249 -2.26838
LeftShoulder1  1.81608 -2.96055 -21.7429
LeftArm  -17.6351 -15.6619 -42.5481
LeftForeArm  133.661 -77.4902 -128.564
LeftHand  -0.635145 -4.70995 7.59066
RightShoulder  1.87574 2.87731 23.2505
RightArm  -5.02386 -27.0866 40.2284
RightForeArm  87.0943 79.7486 90.3821
RightHand  -0.207565 7.77628 -2.19781
LeftUpLeg  4.09985 1.783 3.03097
LeftLeg  -4.94072 18.4211 -2.34451
LeftFoot  1.7639 0.514073 -4.61806
LeftToes  4.7643e-008 1.47522e-008 1.32869e-009
50
root  -4.58882 41.0174 -1.21461 -141.773 -88.3165 144.059
RightUpLeg  3.33574 -1.48409 -0.13781
RightLeg  -4.00893 -21.2114 2.81463
RightFoot  -1.00697 -0.0626617 0.621541
RightToes  -3.10678e-008 1.75238e-005 3.56266e-009
Spine  5.40575 -4.53348 -13.1337
Spine1  -5.32224 -6.93716 17.0391
HEad  -8.7234 37.3698 -3.03227
LeftShoulder1  1.75233 -2.74155 -21.6947
LeftArm  -17.6038 -15.6566 -42.6324
LeftForeArm  133.926 -77.4439 -128.837
LeftHand  -0.651243 -4.97336 7.59891
RightShoulder  1.94602 3.13948 23.1385
RightArm  -5.34725 -27.2473 40.3033
RightForeArm  86.3316 79.7886 88.7021
RightHand  -0.165714 8.00523 -1.80723
LeftUpLeg  3.82923 1.75341 3.08346
LeftLeg  -4.77749 17.4561 -2.21324
LeftFoot  1.70914 0.507157 -4.53374
LeftToes  4.7643e-008 1.47522e-008 1.32869e-009
51
root  -4.58329 41.0161 -1.25137 -114.525 -88.9202 116.82
RightUpLeg  3.56694 -1.44889 -0.0115474
RightLeg  -4.42752 -22.243 3.05367
RightFoot  -1.00207 -0.0531546 0.508195
RightToes  -3.10678e-008 1.75238e-005 3.56266e-009
Spine  5.59304 -4.47112 -12.9626
Spine1  -5.83781 -6.7824 16.8283
HEad  -7.20823 36.316 -2.66666
LeftShoulder1  1.95173 -3.37208 -22.0579
LeftArm  -17.8495 -15.2869 -42.1677
LeftForeArm  133.602 -77.5009 -128.501
LeftHand  -0.66115 -4.38551 8.12765
RightShoulder  1.94421 3.11292 23.2352
RightArm  -5.41219 -27.8886 40.0705
RightForeArm  86.9444 79.7733 89.7065
RightHand  -0.142923 7.87914 -1.62064
LeftUpLeg  3.52473 1.77166 3.20068
LeftLeg  -4.42002 16.4489 -2.00513
LeftFoot  1.68742 0.517253 -4.68327
LeftToes  4.7643e-008 1.47522e-008 1.32869e-009
